REM DIRINDEX 1\2,1\3,1\4,1\5
REM DIRNAME cjc046,folder01,folder02,folder03,folder04
TITLE ""
FILE "121.mp3" MP3
  TRACK 01 AUDIO
    TITLE "0:"
    INDEX 01 00:00:00
  TRACK 02 AUDIO
    TITLE "2:cjc046_2952"
    INDEX 01 00:00:23
  TRACK 03 AUDIO
    TITLE "0:"
    INDEX 01 00:01:19
  TRACK 04 AUDIO
    TITLE "3:cjc046_2953"
    INDEX 01 00:01:54
  TRACK 05 AUDIO
    TITLE "0:"
    INDEX 01 00:03:47
  TRACK 06 AUDIO
    TITLE "4:cjc046_2954"
    INDEX 01 00:04:01
  TRACK 07 AUDIO
    TITLE "0:"
    INDEX 01 00:04:72
  TRACK 08 AUDIO
    TITLE "2:cjc046_2955"
    INDEX 01 00:06:18
  TRACK 09 AUDIO
    TITLE "0:"
    INDEX 01 00:07:23
  TRACK 10 AUDIO
    TITLE "3:cjc046_2956"
    INDEX 01 00:07:43
  TRACK 11 AUDIO
    TITLE "0:"
    INDEX 01 00:08:58
  TRACK 12 AUDIO
    TITLE "4:cjc046_2957"
    INDEX 01 00:09:00
  TRACK 13 AUDIO
    TITLE "0:"
    INDEX 01 00:10:04
  TRACK 14 AUDIO
    TITLE "2:cjc046_2958"
    INDEX 01 00:11:13
  TRACK 15 AUDIO
    TITLE "0:"
    INDEX 01 00:12:16
  TRACK 16 AUDIO
    TITLE "3:cjc046_2959"
    INDEX 01 00:12:34
  TRACK 17 AUDIO
    TITLE "0:"
    INDEX 01 00:14:31
  TRACK 18 AUDIO
    TITLE "4:cjc046_2960"
    INDEX 01 00:14:51
  TRACK 19 AUDIO
    TITLE "0:"
    INDEX 01 00:15:54
  TRACK 20 AUDIO
    TITLE "2:cjc046_2961"
    INDEX 01 00:16:61
  TRACK 21 AUDIO
    TITLE "0:"
    INDEX 01 00:17:65
  TRACK 22 AUDIO
    TITLE "3:cjc046_2962"
    INDEX 01 00:18:11
  TRACK 23 AUDIO
    TITLE "0:"
    INDEX 01 00:19:32
  TRACK 24 AUDIO
    TITLE "4:cjc046_2963"
    INDEX 01 00:19:46
  TRACK 25 AUDIO
    TITLE "0:"
    INDEX 01 00:20:51
  TRACK 26 AUDIO
    TITLE "2:cjc046_2964"
    INDEX 01 00:21:60
  TRACK 27 AUDIO
    TITLE "0:"
    INDEX 01 00:22:64
  TRACK 28 AUDIO
    TITLE "3:cjc046_2965"
    INDEX 01 00:23:06
  TRACK 29 AUDIO
    TITLE "0:"
    INDEX 01 00:24:08
  TRACK 30 AUDIO
    TITLE "4:cjc046_2966"
    INDEX 01 00:24:27
  TRACK 31 AUDIO
    TITLE "0:"
    INDEX 01 00:25:31
  TRACK 32 AUDIO
    TITLE "2:cjc046_2967"
    INDEX 01 00:26:38
  TRACK 33 AUDIO
    TITLE "0:"
    INDEX 01 00:27:45
  TRACK 34 AUDIO
    TITLE "3:cjc046_2968"
    INDEX 01 00:27:65
  TRACK 35 AUDIO
    TITLE "0:"
    INDEX 01 00:29:07
  TRACK 36 AUDIO
    TITLE "4:cjc046_2969"
    INDEX 01 00:29:19
  TRACK 37 AUDIO
    TITLE "0:"
    INDEX 01 00:30:26
  TRACK 38 AUDIO
    TITLE "2:cjc046_2970"
    INDEX 01 00:31:35
  TRACK 39 AUDIO
    TITLE "0:"
    INDEX 01 00:32:37
  TRACK 40 AUDIO
    TITLE "3:cjc046_2971"
    INDEX 01 00:32:56
  TRACK 41 AUDIO
    TITLE "0:"
    INDEX 01 00:34:32
  TRACK 42 AUDIO
    TITLE "4:cjc046_2972"
    INDEX 01 00:34:38
  TRACK 43 AUDIO
    TITLE "0:"
    INDEX 01 00:35:41
  TRACK 44 AUDIO
    TITLE "2:cjc046_2973"
    INDEX 01 00:36:48
  TRACK 45 AUDIO
    TITLE "0:"
    INDEX 01 00:37:65
  TRACK 46 AUDIO
    TITLE "3:cjc046_2974"
    INDEX 01 00:38:14
  TRACK 47 AUDIO
    TITLE "0:"
    INDEX 01 00:39:64
  TRACK 48 AUDIO
    TITLE "4:cjc046_2975"
    INDEX 01 00:39:74
  TRACK 49 AUDIO
    TITLE "0:"
    INDEX 01 00:41:16
  TRACK 50 AUDIO
    TITLE "2:cjc046_2976"
    INDEX 01 00:42:25
  TRACK 51 AUDIO
    TITLE "0:"
    INDEX 01 00:43:29
  TRACK 52 AUDIO
    TITLE "3:cjc046_2977"
    INDEX 01 00:43:52
  TRACK 53 AUDIO
    TITLE "0:"
    INDEX 01 00:44:52
  TRACK 54 AUDIO
    TITLE "4:cjc046_2978"
    INDEX 01 00:44:71
  TRACK 55 AUDIO
    TITLE "0:"
    INDEX 01 00:45:73
  TRACK 56 AUDIO
    TITLE "2:cjc046_2979"
    INDEX 01 00:47:11
  TRACK 57 AUDIO
    TITLE "0:"
    INDEX 01 00:48:12
  TRACK 58 AUDIO
    TITLE "3:cjc046_2980"
    INDEX 01 00:48:32
  TRACK 59 AUDIO
    TITLE "0:"
    INDEX 01 00:49:39
  TRACK 60 AUDIO
    TITLE "4:cjc046_2981"
    INDEX 01 00:49:59
  TRACK 61 AUDIO
    TITLE "0:"
    INDEX 01 00:50:60
  TRACK 62 AUDIO
    TITLE "2:cjc046_2982"
    INDEX 01 00:51:69
  TRACK 63 AUDIO
    TITLE "0:"
    INDEX 01 00:53:33
  TRACK 64 AUDIO
    TITLE "3:cjc046_2983"
    INDEX 01 00:53:53
  TRACK 65 AUDIO
    TITLE "0:"
    INDEX 01 00:55:32
  TRACK 66 AUDIO
    TITLE "4:cjc046_2984"
    INDEX 01 00:55:53
  TRACK 67 AUDIO
    TITLE "0:"
    INDEX 01 00:57:19
  TRACK 68 AUDIO
    TITLE "2:cjc046_2985"
    INDEX 01 00:58:26
  TRACK 69 AUDIO
    TITLE "0:"
    INDEX 01 00:59:22
  TRACK 70 AUDIO
    TITLE "3:cjc046_2986"
    INDEX 01 00:59:41
  TRACK 71 AUDIO
    TITLE "0:"
    INDEX 01 01:00:35
  TRACK 72 AUDIO
    TITLE "4:cjc046_2987"
    INDEX 01 01:00:53
  TRACK 73 AUDIO
    TITLE "0:"
    INDEX 01 01:01:50
  TRACK 74 AUDIO
    TITLE "2:cjc046_2988"
    INDEX 01 01:02:57
  TRACK 75 AUDIO
    TITLE "0:"
    INDEX 01 01:04:01
  TRACK 76 AUDIO
    TITLE "3:cjc046_2989"
    INDEX 01 01:04:21
  TRACK 77 AUDIO
    TITLE "0:"
    INDEX 01 01:06:57
  TRACK 78 AUDIO
    TITLE "4:cjc046_2990"
    INDEX 01 01:06:71
  TRACK 79 AUDIO
    TITLE "0:"
    INDEX 01 01:08:17
